<?xml version="1.0" encoding="utf-8"?>
<!-- Generator: Adobe Illustrator 27.7.0, SVG Export Plug-In . SVG Version: 6.00 Build 0)  -->
<svg version="1.1" id="Layer_1" xmlns="http://www.w3.org/2000/svg" xmlns:xlink="http://www.w3.org/1999/xlink" x="0px" y="0px"
	 viewBox="0 0 24 22" style="enable-background:new 0 0 24 22;" xml:space="preserve">
<style type="text/css">
	.st0{fill-rule:evenodd;clip-rule:evenodd;fill:#999999;}
</style>
<path class="st0" d="M0.4,0.7c0.7-0.9,2.1-0.8,3.2,0l19.3,17.5c1.1,0.9,1.4,2.3,0.7,3.1c-0.7,0.9-2.1,0.8-3.2,0L1.1,3.8
	C0,3-0.3,1.6,0.4,0.7z"/>
<path class="st0" d="M0.6,21.5c-0.8-0.8-0.9-2-0.1-2.8l20-17.9c0.8-0.8,2-0.9,2.8-0.1c0.8,0.8,0.9,2,0.1,2.8l-20,17.9
	C2.7,22.2,1.4,22.2,0.6,21.5z"/>
</svg>
