<svg width="18" height="15" viewBox="0 0 18 15" fill="none" xmlns="http://www.w3.org/2000/svg">
<path d="M5.66064 14.9111C12.4531 14.9111 16.1683 9.2836 16.1683 4.40342C16.1683 4.24358 16.1683 4.08446 16.1575 3.92606C16.8803 3.40328 17.5042 2.75597 18 2.01446C17.326 2.31312 16.611 2.50898 15.8789 2.5955C16.6498 2.13396 17.2268 1.40805 17.5025 0.552853C16.7776 0.983022 15.9845 1.28618 15.1574 1.44926C14.6006 0.857187 13.8642 0.465134 13.0621 0.333766C12.2601 0.202398 11.4371 0.339039 10.7205 0.722544C10.0039 1.10605 9.43367 1.71504 9.09806 2.45527C8.76245 3.1955 8.68016 4.02571 8.86392 4.81742C7.39566 4.74382 5.95929 4.36226 4.64806 3.69753C3.33683 3.03279 2.18004 2.09974 1.2528 0.958934C0.780546 1.77193 0.635904 2.73436 0.848325 3.65026C1.06075 4.56616 1.61426 5.36666 2.39616 5.88879C1.80845 5.87137 1.23356 5.71283 0.72 5.42655C0.72 5.44167 0.72 5.45751 0.72 5.47335C0.720233 6.32599 1.01539 7.1523 1.5554 7.81213C2.09542 8.47196 2.84705 8.92468 3.6828 9.09352C3.13911 9.24179 2.56866 9.26347 2.01528 9.15688C2.25127 9.89068 2.7107 10.5324 3.32933 10.9922C3.94796 11.4521 4.69484 11.707 5.46552 11.7215C4.15781 12.7493 2.54236 13.3072 0.87912 13.3055C0.58529 13.305 0.291747 13.2872 0 13.2522C1.68886 14.336 3.65394 14.9109 5.66064 14.9083" fill="#999999"/>
</svg>
